<svg xmlns="http://www.w3.org/2000/svg" x="0px" y="0px" viewBox="0 0 1000 1000" enable-background="new 0 0 1000 1000" xml:space="preserve">
<path fill="#fff" d="M255,561.2c0-33.8,27.4-61.3,61.3-61.3c33.8,0,61.3,27.4,61.3,61.3c0,33.8-27.4,61.2-61.3,61.2C282.4,622.5,255,595.1,255,561.2z M622.5,561.2c0-33.8,27.4-61.3,61.3-61.3c33.8,0,61.3,27.4,61.3,61.3c0,33.8-27.4,61.2-61.3,61.2C649.9,622.5,622.5,595.1,622.5,561.2z M625.4,692.1c15.8-12.4,38.6-9.7,51.1,6.1c12.4,15.8,9.7,38.6-6.1,51.1c-43.9,34.6-110.8,57-170.5,57c-59.7,0-126.6-22.4-170.5-57c-15.8-12.4-18.5-35.3-6.1-51.1c12.4-15.8,35.3-18.5,51.1-6.1c25.3,19.9,75.3,41.4,125.5,41.4C550.1,733.5,600.1,712,625.4,692.1z M990,438.7c0-67.7-54.8-122.5-122.5-122.5c-46.1,0-86.1,25.4-107,63c-63-34.5-139.7-56.7-223.3-61.8l73.1-164.2l139.9,40.4c12.6,35.7,46.6,61.4,86.7,61.4c50.7,0,91.9-41.1,91.9-91.9c0-50.7-41.1-91.9-91.9-91.9c-35,0-65.4,19.6-80.9,48.4l-155.9-45c-17.5-5-35.9,3.6-43.3,20.2l-99.3,223c-81.5,5.7-156.2,27.8-217.9,61.5c-20.9-37.6-61-63-107.1-63C64.8,316.3,10,371.1,10,438.8c0,50.1,30,93.1,73.1,112.1c-7.7,23-11.9,47-11.9,71.7c0,169.1,192,306.3,428.7,306.3c236.8,0,428.8-137.1,428.8-306.3c0-24.7-4.1-48.7-11.9-71.7C959.9,531.9,990,488.8,990,438.7L990,438.7z M836.8,128.6c19,0,34.5,15.4,34.5,34.5s-15.4,34.5-34.5,34.5c-19,0-34.5-15.4-34.5-34.5S817.8,128.6,836.8,128.6z M71.2,438.7c0-33.8,27.5-61.3,61.3-61.3c24.4,0,45.5,14.4,55.4,35.1c-32,24.3-58.5,52.3-78.2,83C87.2,486.5,71.2,464.4,71.2,438.7z M500,856c-196.6,0-356-104.6-356-233.5c0-129,159.4-233.5,356-233.5s356,104.6,356,233.5C856,751.4,696.6,856,500,856z M890.3,495.6c-19.6-30.7-46.2-58.7-78.2-83c9.8-20.7,31-35.1,55.4-35.1c33.8,0,61.3,27.5,61.3,61.3C928.7,464.4,912.8,486.5,890.3,495.6z"/>
</svg>